<svg xmlns="http://www.w3.org/2000/svg" viewBox="0 0 512 512" width="16" height="16" aria-hidden="true" class="$w-[1em] $h-[1em] $fill-current $text-lg min-h-6 min-w-6 lg:min-h-8 lg:min-w-8"><path d="M437 25H75c-35.8 0-65 29.2-65 65v257c0 35.8 29.2 65 65 65h35v50c0 9.1 4.9 17.4 12.8 21.8 3.8 2.1 8 3.2 12.2 3.2 4.6 0 9.1-1.3 13.2-3.8L263.1 412H437c35.8 0 65-29.2 65-65V90c0-35.8-29.2-65-65-65m15 322c0 8.3-6.7 15-15 15H256c-4.7 0-9.2 1.3-13.2 3.8L160 417.1V387c0-13.8-11.2-25-25-25H75c-8.3 0-15-6.7-15-15V90c0-8.3 6.7-15 15-15h362c8.3 0 15 6.7 15 15z"></path><path d="M320.6 193.5h.2c10.8 0 20.4-5.5 25.8-14.7 5.5-9.5 5.5-21.2 0-30.6-5.4-9.2-15-14.7-25.8-14.7h-.2c-10.8 0-20.4 5.5-25.8 14.7-5.5 9.5-5.5 21.2 0 30.6 5.4 9.2 15.1 14.7 25.8 14.7M191.6 193.5h.2c10.8 0 20.4-5.5 25.8-14.7 5.5-9.5 5.5-21.2 0-30.6-5.4-9.2-15-14.7-25.8-14.7h-.2c-10.8 0-20.4 5.5-25.8 14.7-5.5 9.5-5.5 21.2 0 30.6 5.4 9.2 15.1 14.7 25.8 14.7M343.1 230.3c-47.5 44.6-123 44.3-175.6-.8-10.5-9-26.3-7.8-35.3 2.7s-7.8 26.3 2.7 35.3c34.6 29.7 78.2 46 122.7 46h.7c44.8-.2 87.1-16.8 119-46.7 10.1-9.5 10.6-25.3 1.1-35.3-9.4-10.2-25.2-10.6-35.3-1.2"></path></svg>